# xmcd
#
# Track frame offsets:
#  150
#  18861
#  45410
#  69989
#  88964
#  105002
#  117120
#  135241
#  158182
#  180600
#  194978
#  212471
#  238992
#
# Disc length: 3476 seconds
#
# Revision: 0
# Processed by: cddbd v1.4PL0 Copyright (c) Steve Scherf et al.
# Submitted via: AltoMP3_Maker 3.0
#
DISCID=a60d920d
DTITLE=Eva Cassidy - Live At Blues Alley
DYEAR=1900
DGENRE=
TTITLE0=Cheek To Cheek
TTITLE1=Stormy Monday
TTITLE2=Bridge Over Troubled Waters
TTITLE3=Fine And Mellow
TTITLE4=People Get Ready
TTITLE5=Blue Skies
TTITLE6=Tall Trees In Georgia
TTITLE7=Fields Of Gold
TTITLE8=Autumn Leaves
TTITLE9=Honeysuckle Rose
TTITLE10=Take Me To The River
TTITLE11=What A Wonderful World
TTITLE12=Oh, Had I A Golden Thread
EXTD=
EXTT0=
EXTT1=
EXTT2=
EXTT3=
EXTT4=
EXTT5=
EXTT6=
EXTT7=
EXTT8=
EXTT9=
EXTT10=
EXTT11=
EXTT12=
PLAYORDER=
